<?xml version="1.0" encoding="UTF-8"?>
<svg xmlns="http://www.w3.org/2000/svg" xmlns:xlink="http://www.w3.org/1999/xlink" width="354px" height="298px" viewBox="0 0 354 298" version="1.1">
  <!-- Generator: Sketch 57.1 (83088) - https://sketch.com -->
  <title>Group Copy 2</title>
  <desc>Created with Sketch.</desc>
  <g id="Page-1" stroke="none" stroke-width="1" fill="none" fill-rule="evenodd">
    <g id="Group-Copy-2" transform="translate(-2.000000, 0.000000)">
      <g id="Page-1" transform="translate(5.000000, 0.000000)">
        <path d="M207.063477,3.35839844 C207.063477,3.35839844 225.620117,5.47363281 245.131836,15.4360352 C246.637772,16.2049445 248.245663,17.2634366 249.930798,18.5622304 C270.079189,34.0913073 301.270508,83.9736328 301.270508,83.9736328 L292.334961,150.789063 L222.820312,177.316406 L157.115234,173.535156 L164.305176,154.072021 L167.637695,151.646484 L202.25,125.825195 L217.838867,96.2548828 L221.943359,66.1777344 L205.947266,21.4267578 L207.063477,3.35839844 Z" id="Path-4" fill="#B8B906"></path>
        <path d="M0.5829,207.8615 L18.6779,139.8255 C18.6779,139.8255 30.1784539,127.867303 51.420899,121.510579 C75.855591,114.198587 113.180137,114.29811 160.7179,148.5345 C249.5829,212.5345 354.434637,97.7602344 240.327637,13.2402344 C240.327637,13.2402344 243.366122,14.2963604 247.22998,16.4645996 C275.183461,32.150947 386.073532,105.526428 274.664062,192.714844 C147.855062,291.953844 0.5829,207.8615 0.5829,207.8615 Z" id="Stroke-1" fill="#0B4684"></path>
        <path d="M206.8267,3.1476 C278.095369,53.7219069 263.588973,103.773934 230.71875,129.996094 C197.848527,156.218254 166.5277,152.4476 166.5277,152.4476 C166.5277,152.4476 274.330086,54.9003906 137.663086,24.9003906 C137.663086,24.9003906 65.5742187,14.7295 39.5742187,50.0625 C39.5742187,50.0625 33.4101406,62.7275391 36.7441406,70.7275391 C36.7441406,70.7275391 26.2675781,49.6220703 32.9208984,42.71875 C39.5742187,35.8154297 51.7547,24.3806 94.6687,9.6236 C137.5827,-5.1324 202.2177,2.4386 202.2177,2.4386 L206.8267,3.1476 Z" id="Stroke-3" fill="#D2D300"></path>
      </g>
      <text id="SKILLS-DIVERS" font-family="GothamRounded-Book, Gotham Rounded" font-size="48" font-weight="300" letter-spacing="-0.476470515">
        <tspan x="0" y="290" fill="#0B4684">SKILLS</tspan>
        <tspan x="166.245177" y="290" font-family="DINAlternate-Bold, DIN Alternate" font-weight="bold" fill="#2A333A"> </tspan>
        <tspan x="177.276519" y="290" fill="#D2D300">DIVERS</tspan>
      </text>
    </g>
  </g>
</svg>
